# xmcd CD Database Entry
#
# Track frame offsets:
# 150
# 15952
# 34063
# 52306
# 72325
# 89708
# 103381
# 119768
# 138955
# 155439
# 160245
# 177287
# 184566
# 204119
# 219684
# 241487
# 251322
# 270868
#
# Disc length: 3829 seconds
#
# Revision: 1
# Processed by: cddbd v1.4PL0 Copyright (c) Steve Scherf et al.
# Submitted via: tcd 2.0b
#
DISCID=fe0ef312
DTITLE=Moby - Play
DYEAR=1900
DGENRE=
TTITLE0=Honey
TTITLE1=Find My Baby
TTITLE2=Porcelain
TTITLE3=Why Does My Heart Feel So Bad?
TTITLE4=Southside
TTITLE5=Rushing
TTITLE6=Bodyrock
TTITLE7=Natural Blues
TTITLE8=Machete
TTITLE9=7
TTITLE10=RunOn
TTITLE11=DownSlow
TTITLE12=If Things Were Perfect
TTITLE13=Everloving
TTITLE14=Inside
TTITLE15=Guitar Flute and String
TTITLE16=The Sky Is Broken
TTITLE17=My Weakness
EXTD=
EXTT0=
EXTT1=
EXTT2=
EXTT3=
EXTT4=
EXTT5=
EXTT6=
EXTT7=
EXTT8=
EXTT9=
EXTT10=
EXTT11=
EXTT12=
EXTT13=
EXTT14=
EXTT15=
EXTT16=
EXTT17=
PLAYORDER=
